<svg xmlns="http://www.w3.org/2000/svg" viewBox="0 0 512 512" width="512" height="512"><path d="M512 0h-40v16h24v32h16v-48zm-80 0h-40v16h40v-16zm-80 0h-40v16h40v-16zm-80 0h-40v16h40v-16zm-80 0h-40v16h40v-16zm-80 0h-40v16h40v-16zm-80 0h-32v16h32v-16zm-16 48h-16v40h16v-40zm0 80h-16v40h16v-40zm0 80h-16v40h16v-40zm0 80h-16v40h16v-40zm0 80h-16v40h16v-40zm0 80h-16v40h16v-40zm40 48h-40v16h40v-16zm80 0h-40v16h40v-16zm80 0h-40v16h40v-16zm80 0h-40v16h40v-16zm80 0h-40v16h40v-16zm80 0h-40v16h40v-16zm56-8h-16v24h16v-24zm0-80h-16v40h16v-40zm0-80h-16v40h16v-40zm0-80h-16v40h16v-40zm0-80h-16v40h16v-40zm0-80h-16v40h16v-40z" fill="#999"/><path class="active-path" d="M244 175.976h24v160.08h-24zm-68.024 68.024h160.08v24h-160.08z" fill="#5E5D5D"/></svg>