<svg xmlns="http://www.w3.org/2000/svg" viewBox="0 0 21.9 21.9" enable-background="new 0 0 21.9 21.9" width="512" height="512"><path d="M14.1 11.3c-.2-.2-.2-.5 0-.7l7.5-7.5c.2-.2.3-.5.3-.7s-.1-.5-.3-.7l-1.4-1.4c-.2-.2-.5-.3-.7-.3-.3 0-.5.1-.7.3l-7.5 7.5c-.2.2-.5.2-.7 0l-7.5-7.5c-.2-.2-.5-.3-.7-.3s-.5.1-.7.3l-1.4 1.4c-.2.2-.3.5-.3.7s.1.5.3.7l7.5 7.5c.2.2.2.5 0 .7l-7.5 7.5c-.2.2-.3.5-.3.7s.1.5.3.7l1.4 1.4c.2.2.5.3.7.3s.5-.1.7-.3l7.5-7.5c.2-.2.5-.2.7 0l7.5 7.5c.2.2.5.3.7.3s.5-.1.7-.3l1.4-1.4c.2-.2.3-.5.3-.7s-.1-.5-.3-.7l-7.5-7.5z" class="active-path" fill="#5e5d5d"/></svg>