<svg xmlns="http://www.w3.org/2000/svg" viewBox="0 0 512 512" width="512" height="512"><path d="M376 30c-27.783 0-53.255 8.804-75.707 26.168-21.525 16.647-35.856 37.85-44.293 53.268-8.437-15.419-22.768-36.621-44.293-53.268-22.452-17.364-47.924-26.168-75.707-26.168-77.532 0-136 63.417-136 147.514 0 90.854 72.943 153.015 183.369 247.118 18.752 15.981 40.007 34.095 62.099 53.414 2.912 2.55 6.652 3.954 10.532 3.954s7.62-1.404 10.532-3.953c22.094-19.322 43.348-37.435 62.111-53.425 110.414-94.093 183.357-156.254 183.357-247.108 0-84.097-58.468-147.514-136-147.514z" class="active-path" fill="#E03939"/></svg>