<svg xmlns="http://www.w3.org/2000/svg" viewBox="0 0 512 512" width="512" height="512"><path d="M512 241.7l-238.357-238.357v156.152c-71.41 3.744-138.015 33.337-188.958 84.28-54.61 54.609-84.685 127.216-84.685 204.447v60.436l29.069-52.985c45.354-82.671 132.173-134.027 226.573-134.027 5.986 0 12.004.212 18.001.632v157.779l238.357-238.357zm-256.358 48.966c-84.543 0-163.661 36.792-217.939 98.885 26.634-114.177 129.256-199.483 251.429-199.483h15.489v-111.937l163.568 163.568-163.568 163.568v-110.736l-13.585-1.683c-11.689-1.447-23.597-2.182-35.394-2.182z" class="active-path" fill="#fff"/></svg>