<svg xmlns="http://www.w3.org/2000/svg" width="512" height="512"><path d="M512 0h-40v16h24v32h16V0zm-80 0h-40v16h40V0zm-80 0h-40v16h40V0zm-80 0h-40v16h40V0zm-80 0h-40v16h40V0zm-80 0H72v16h40V0zM32 0H0v16h32V0zM16 48H0v40h16V48zm0 80H0v40h16v-40zm0 80H0v40h16v-40zm0 80H0v40h16v-40zm0 80H0v40h16v-40zm0 80H0v40h16v-40zm40 48H16v16h40v-16zm80 0H96v16h40v-16zm80 0h-40v16h40v-16zm80 0h-40v16h40v-16zm80 0h-40v16h40v-16zm80 0h-40v16h40v-16zm56-8h-16v24h16v-24zm0-80h-16v40h16v-40zm0-80h-16v40h16v-40zm0-80h-16v40h16v-40zm0-80h-16v40h16v-40zm0-80h-16v40h16V88z" fill="#999"/><path class="active-path" d="M244 175.976h24v160.08h-24zM175.976 244h160.08v24h-160.08z" fill="#5E5D5D"/></svg>