<svg xmlns="http://www.w3.org/2000/svg" width="512" height="512"><path d="M512 241.7L273.643 3.343v156.152c-71.41 3.744-138.015 33.337-188.958 84.28C30.075 298.384 0 370.991 0 448.222v60.436l29.069-52.985c45.354-82.671 132.173-134.027 226.573-134.027 5.986 0 12.004.212 18.001.632v157.779L512 241.7zm-256.358 48.966c-84.543 0-163.661 36.792-217.939 98.885 26.634-114.177 129.256-199.483 251.429-199.483h15.489V78.131l163.568 163.568-163.568 163.568V294.531l-13.585-1.683a289.172 289.172 0 0 0-35.394-2.182z" class="active-path" fill="#fff"/></svg>