<svg xmlns="http://www.w3.org/2000/svg" viewBox="0 0 432.115 432.115"><path d="M184.007 209.972c23.96 0 47.357-14.538 65.881-40.936 16.347-23.296 26.106-52.099 26.106-77.048C275.994 41.266 234.728 0 184.007 0c-50.722 0-91.988 41.266-91.988 91.988 0 24.949 9.759 53.752 26.106 77.048 18.524 26.398 41.921 40.936 65.882 40.936zm0-194.972c42.451 0 76.987 34.537 76.987 76.988 0 21.655-8.961 47.876-23.385 68.432-15.409 21.958-34.946 34.552-53.603 34.552-18.657 0-38.194-12.594-53.603-34.552-14.425-20.556-23.385-46.777-23.385-68.432C107.019 49.537 141.555 15 184.007 15zm35.931 373.361c.095.065.177.12-.018-.013a.744.744 0 0 0-.009-.005c-2.877-1.939-6.858-1.553-9.346.842-2.161 2.081-2.88 5.331-1.788 8.127 1.069 2.735 3.732 4.651 6.672 4.769 3.223.129 6.237-1.894 7.347-4.914 1.187-3.228-.041-6.871-2.858-8.806z"/><path d="M310.862 237.118c-.727 0-1.452.012-2.176.028-15.063-18.626-34.3-33.832-55.87-44.1a7.503 7.503 0 0 0-8.521 1.462c-18.069 18.023-38.919 27.55-60.293 27.55-21.377 0-42.222-9.526-60.282-27.549a7.498 7.498 0 0 0-8.522-1.463c-26.963 12.838-49.783 32.917-65.992 58.067-16.652 25.836-25.454 55.811-25.454 86.684v.13a7.5 7.5 0 0 0 2.462 5.556c43.279 39.249 99.316 60.864 157.788 60.864 3.088 0 6.209-.061 9.277-.18a7.5 7.5 0 1 0-.582-14.988c-2.874.111-5.799.168-8.695.168-53.62 0-105.055-19.418-145.215-54.746.583-26.855 8.515-52.846 23.027-75.363 13.766-21.359 32.788-38.684 55.228-50.357 20.046 18.456 43.095 28.175 66.961 28.175 23.862 0 46.915-9.72 66.968-28.175 14.823 7.722 28.305 18.051 39.688 30.345-44.099 9.33-77.297 48.553-77.297 95.389 0 53.762 43.738 97.5 97.5 97.5s97.5-43.738 97.5-97.5c.001-53.762-43.738-97.497-97.5-97.497zm0 180c-45.49 0-82.5-37.009-82.5-82.5s37.01-82.5 82.5-82.5 82.5 37.009 82.5 82.5-37.01 82.5-82.5 82.5z"/><path d="M373.088 327.118h-54.726v-54.726c0-4.142-3.357-7.5-7.5-7.5s-7.5 3.358-7.5 7.5v54.726h-54.726a7.5 7.5 0 0 0-7.5 7.5 7.5 7.5 0 0 0 7.5 7.5h54.726v54.725c0 4.142 3.357 7.5 7.5 7.5s7.5-3.358 7.5-7.5v-54.725h54.726a7.5 7.5 0 0 0 0-15z"/></svg>